G04 (created by PCBNEW (2013-jul-07)-stable) date Sun 11 Dec 2016 08:13:39 PM CST*
%MOIN*%
G04 Gerber Fmt 3.4, Leading zero omitted, Abs format*
%FSLAX34Y34*%
G01*
G70*
G90*
G04 APERTURE LIST*
%ADD10C,0.005*%
%ADD11C,0.011811*%
%ADD12C,0.00393701*%
%ADD13C,0.00787402*%
G04 APERTURE END LIST*
G54D10*
G54D11*
X81579Y-49582D02*
X81551Y-49610D01*
X81467Y-49639D01*
X81411Y-49639D01*
X81326Y-49610D01*
X81270Y-49554D01*
X81242Y-49498D01*
X81214Y-49385D01*
X81214Y-49301D01*
X81242Y-49189D01*
X81270Y-49132D01*
X81326Y-49076D01*
X81411Y-49048D01*
X81467Y-49048D01*
X81551Y-49076D01*
X81579Y-49104D01*
X81832Y-49048D02*
X81832Y-49526D01*
X81861Y-49582D01*
X81889Y-49610D01*
X81945Y-49639D01*
X82057Y-49639D01*
X82114Y-49610D01*
X82142Y-49582D01*
X82170Y-49526D01*
X82170Y-49048D01*
X82367Y-49048D02*
X82704Y-49048D01*
X82535Y-49639D02*
X82535Y-49048D01*
X83464Y-49048D02*
X83576Y-49048D01*
X83632Y-49076D01*
X83688Y-49132D01*
X83717Y-49245D01*
X83717Y-49442D01*
X83688Y-49554D01*
X83632Y-49610D01*
X83576Y-49639D01*
X83464Y-49639D01*
X83407Y-49610D01*
X83351Y-49554D01*
X83323Y-49442D01*
X83323Y-49245D01*
X83351Y-49132D01*
X83407Y-49076D01*
X83464Y-49048D01*
X83970Y-49048D02*
X83970Y-49526D01*
X83998Y-49582D01*
X84026Y-49610D01*
X84082Y-49639D01*
X84195Y-49639D01*
X84251Y-49610D01*
X84279Y-49582D01*
X84307Y-49526D01*
X84307Y-49048D01*
X84504Y-49048D02*
X84841Y-49048D01*
X84673Y-49639D02*
X84673Y-49048D01*
G54D12*
X76968Y-48818D02*
X88976Y-48818D01*
X76968Y-49803D02*
X76968Y-48818D01*
X88976Y-49803D02*
X76968Y-49803D01*
X88976Y-48818D02*
X88976Y-49803D01*
X66000Y-42000D02*
X66000Y-68250D01*
X100000Y-42000D02*
X66000Y-42000D01*
X100000Y-63000D02*
X100000Y-42000D01*
X100000Y-68250D02*
X100000Y-63000D01*
X66000Y-68250D02*
X100000Y-68250D01*
G54D13*
X66415Y-42540D02*
X68085Y-44210D01*
X68085Y-42540D02*
X66415Y-44210D01*
X66415Y-62165D02*
X68085Y-63835D01*
X68085Y-62165D02*
X66415Y-63835D01*
X97790Y-62165D02*
X99460Y-63835D01*
X99460Y-62165D02*
X97790Y-63835D01*
X97915Y-42540D02*
X99585Y-44210D01*
X99585Y-42540D02*
X97915Y-44210D01*
X79527Y-45472D02*
G75*
G03X79527Y-45472I-1673J0D01*
G74*
G01*
X89763Y-45472D02*
G75*
G03X89763Y-45472I-1673J0D01*
G74*
G01*
G54D11*
X67048Y-70046D02*
X67048Y-68865D01*
X67330Y-68865D01*
X67498Y-68922D01*
X67611Y-69034D01*
X67667Y-69147D01*
X67723Y-69372D01*
X67723Y-69540D01*
X67667Y-69765D01*
X67611Y-69878D01*
X67498Y-69990D01*
X67330Y-70046D01*
X67048Y-70046D01*
X68230Y-70046D02*
X68230Y-69259D01*
X68230Y-69484D02*
X68286Y-69372D01*
X68342Y-69315D01*
X68455Y-69259D01*
X68567Y-69259D01*
X68961Y-70046D02*
X68961Y-69259D01*
X68961Y-68865D02*
X68904Y-68922D01*
X68961Y-68978D01*
X69017Y-68922D01*
X68961Y-68865D01*
X68961Y-68978D01*
X69692Y-70046D02*
X69579Y-69990D01*
X69523Y-69878D01*
X69523Y-68865D01*
X70311Y-70046D02*
X70198Y-69990D01*
X70142Y-69878D01*
X70142Y-68865D01*
X71660Y-70046D02*
X71660Y-68865D01*
X72054Y-69709D01*
X72448Y-68865D01*
X72448Y-70046D01*
X73516Y-70046D02*
X73516Y-69428D01*
X73460Y-69315D01*
X73348Y-69259D01*
X73123Y-69259D01*
X73010Y-69315D01*
X73516Y-69990D02*
X73404Y-70046D01*
X73123Y-70046D01*
X73010Y-69990D01*
X72954Y-69878D01*
X72954Y-69765D01*
X73010Y-69653D01*
X73123Y-69597D01*
X73404Y-69597D01*
X73516Y-69540D01*
X74079Y-69259D02*
X74079Y-70440D01*
X74079Y-69315D02*
X74191Y-69259D01*
X74416Y-69259D01*
X74529Y-69315D01*
X74585Y-69372D01*
X74641Y-69484D01*
X74641Y-69821D01*
X74585Y-69934D01*
X74529Y-69990D01*
X74416Y-70046D01*
X74191Y-70046D01*
X74079Y-69990D01*
X75147Y-69934D02*
X75204Y-69990D01*
X75147Y-70046D01*
X75091Y-69990D01*
X75147Y-69934D01*
X75147Y-70046D01*
X75147Y-69315D02*
X75204Y-69372D01*
X75147Y-69428D01*
X75091Y-69372D01*
X75147Y-69315D01*
X75147Y-69428D01*
X64310Y-71214D02*
X65980Y-72884D01*
X65980Y-71214D02*
X64310Y-72884D01*
X67555Y-71739D02*
X67555Y-72527D01*
X67273Y-71289D02*
X66992Y-72133D01*
X67723Y-72133D01*
X68173Y-72414D02*
X68230Y-72471D01*
X68173Y-72527D01*
X68117Y-72471D01*
X68173Y-72414D01*
X68173Y-72527D01*
X68679Y-71458D02*
X68736Y-71402D01*
X68848Y-71346D01*
X69129Y-71346D01*
X69242Y-71402D01*
X69298Y-71458D01*
X69354Y-71571D01*
X69354Y-71683D01*
X69298Y-71852D01*
X68623Y-72527D01*
X69354Y-72527D01*
X70367Y-71739D02*
X70367Y-72527D01*
X70086Y-71289D02*
X69804Y-72133D01*
X70535Y-72133D01*
X70985Y-72527D02*
X70985Y-71739D01*
X70985Y-71852D02*
X71042Y-71796D01*
X71154Y-71739D01*
X71323Y-71739D01*
X71435Y-71796D01*
X71492Y-71908D01*
X71492Y-72527D01*
X71492Y-71908D02*
X71548Y-71796D01*
X71660Y-71739D01*
X71829Y-71739D01*
X71942Y-71796D01*
X71998Y-71908D01*
X71998Y-72527D01*
X72560Y-72527D02*
X72560Y-71739D01*
X72560Y-71852D02*
X72616Y-71796D01*
X72729Y-71739D01*
X72898Y-71739D01*
X73010Y-71796D01*
X73066Y-71908D01*
X73066Y-72527D01*
X73066Y-71908D02*
X73123Y-71796D01*
X73235Y-71739D01*
X73404Y-71739D01*
X73516Y-71796D01*
X73573Y-71908D01*
X73573Y-72527D01*
X75879Y-71289D02*
X74866Y-72808D01*
X77397Y-71346D02*
X77510Y-71346D01*
X77622Y-71402D01*
X77678Y-71458D01*
X77735Y-71571D01*
X77791Y-71796D01*
X77791Y-72077D01*
X77735Y-72302D01*
X77678Y-72414D01*
X77622Y-72471D01*
X77510Y-72527D01*
X77397Y-72527D01*
X77285Y-72471D01*
X77228Y-72414D01*
X77172Y-72302D01*
X77116Y-72077D01*
X77116Y-71796D01*
X77172Y-71571D01*
X77228Y-71458D01*
X77285Y-71402D01*
X77397Y-71346D01*
X78297Y-72414D02*
X78353Y-72471D01*
X78297Y-72527D01*
X78241Y-72471D01*
X78297Y-72414D01*
X78297Y-72527D01*
X79478Y-72527D02*
X78803Y-72527D01*
X79141Y-72527D02*
X79141Y-71346D01*
X79028Y-71514D01*
X78916Y-71627D01*
X78803Y-71683D01*
X80491Y-71346D02*
X80266Y-71346D01*
X80153Y-71402D01*
X80097Y-71458D01*
X79984Y-71627D01*
X79928Y-71852D01*
X79928Y-72302D01*
X79984Y-72414D01*
X80041Y-72471D01*
X80153Y-72527D01*
X80378Y-72527D01*
X80491Y-72471D01*
X80547Y-72414D01*
X80603Y-72302D01*
X80603Y-72021D01*
X80547Y-71908D01*
X80491Y-71852D01*
X80378Y-71796D01*
X80153Y-71796D01*
X80041Y-71852D01*
X79984Y-71908D01*
X79928Y-72021D01*
X80997Y-71346D02*
X81784Y-71346D01*
X81278Y-72527D01*
X82178Y-71346D02*
X82178Y-71571D01*
X82628Y-71346D02*
X82628Y-71571D01*
X84371Y-72977D02*
X84315Y-72920D01*
X84203Y-72752D01*
X84146Y-72639D01*
X84090Y-72471D01*
X84034Y-72189D01*
X84034Y-71964D01*
X84090Y-71683D01*
X84146Y-71514D01*
X84203Y-71402D01*
X84315Y-71233D01*
X84371Y-71177D01*
X85327Y-71739D02*
X85327Y-72527D01*
X85046Y-71289D02*
X84765Y-72133D01*
X85496Y-72133D01*
X86846Y-72527D02*
X86846Y-71346D01*
X87352Y-72527D02*
X87352Y-71908D01*
X87296Y-71796D01*
X87183Y-71739D01*
X87015Y-71739D01*
X86902Y-71796D01*
X86846Y-71852D01*
X88083Y-72527D02*
X87971Y-72471D01*
X87915Y-72414D01*
X87858Y-72302D01*
X87858Y-71964D01*
X87915Y-71852D01*
X87971Y-71796D01*
X88083Y-71739D01*
X88252Y-71739D01*
X88365Y-71796D01*
X88421Y-71852D01*
X88477Y-71964D01*
X88477Y-72302D01*
X88421Y-72414D01*
X88365Y-72471D01*
X88252Y-72527D01*
X88083Y-72527D01*
X89152Y-72527D02*
X89039Y-72471D01*
X88983Y-72358D01*
X88983Y-71346D01*
X90052Y-72471D02*
X89939Y-72527D01*
X89714Y-72527D01*
X89602Y-72471D01*
X89546Y-72358D01*
X89546Y-71908D01*
X89602Y-71796D01*
X89714Y-71739D01*
X89939Y-71739D01*
X90052Y-71796D01*
X90108Y-71908D01*
X90108Y-72021D01*
X89546Y-72133D01*
X90558Y-72471D02*
X90670Y-72527D01*
X90895Y-72527D01*
X91008Y-72471D01*
X91064Y-72358D01*
X91064Y-72302D01*
X91008Y-72189D01*
X90895Y-72133D01*
X90727Y-72133D01*
X90614Y-72077D01*
X90558Y-71964D01*
X90558Y-71908D01*
X90614Y-71796D01*
X90727Y-71739D01*
X90895Y-71739D01*
X91008Y-71796D01*
X91458Y-72977D02*
X91514Y-72920D01*
X91627Y-72752D01*
X91683Y-72639D01*
X91739Y-72471D01*
X91795Y-72189D01*
X91795Y-71964D01*
X91739Y-71683D01*
X91683Y-71514D01*
X91627Y-71402D01*
X91514Y-71233D01*
X91458Y-71177D01*
G54D13*
X65980Y-74231D02*
G75*
G03X65980Y-74231I-1673J0D01*
G74*
G01*
G54D11*
X67217Y-74034D02*
X67105Y-73977D01*
X67048Y-73921D01*
X66992Y-73809D01*
X66992Y-73752D01*
X67048Y-73640D01*
X67105Y-73584D01*
X67217Y-73527D01*
X67442Y-73527D01*
X67555Y-73584D01*
X67611Y-73640D01*
X67667Y-73752D01*
X67667Y-73809D01*
X67611Y-73921D01*
X67555Y-73977D01*
X67442Y-74034D01*
X67217Y-74034D01*
X67105Y-74090D01*
X67048Y-74146D01*
X66992Y-74259D01*
X66992Y-74484D01*
X67048Y-74596D01*
X67105Y-74652D01*
X67217Y-74709D01*
X67442Y-74709D01*
X67555Y-74652D01*
X67611Y-74596D01*
X67667Y-74484D01*
X67667Y-74259D01*
X67611Y-74146D01*
X67555Y-74090D01*
X67442Y-74034D01*
X68173Y-74596D02*
X68230Y-74652D01*
X68173Y-74709D01*
X68117Y-74652D01*
X68173Y-74596D01*
X68173Y-74709D01*
X69298Y-73527D02*
X68736Y-73527D01*
X68679Y-74090D01*
X68736Y-74034D01*
X68848Y-73977D01*
X69129Y-73977D01*
X69242Y-74034D01*
X69298Y-74090D01*
X69354Y-74202D01*
X69354Y-74484D01*
X69298Y-74596D01*
X69242Y-74652D01*
X69129Y-74709D01*
X68848Y-74709D01*
X68736Y-74652D01*
X68679Y-74596D01*
X70086Y-73527D02*
X70198Y-73527D01*
X70311Y-73584D01*
X70367Y-73640D01*
X70423Y-73752D01*
X70479Y-73977D01*
X70479Y-74259D01*
X70423Y-74484D01*
X70367Y-74596D01*
X70311Y-74652D01*
X70198Y-74709D01*
X70086Y-74709D01*
X69973Y-74652D01*
X69917Y-74596D01*
X69861Y-74484D01*
X69804Y-74259D01*
X69804Y-73977D01*
X69861Y-73752D01*
X69917Y-73640D01*
X69973Y-73584D01*
X70086Y-73527D01*
X70985Y-74709D02*
X70985Y-73921D01*
X70985Y-74034D02*
X71042Y-73977D01*
X71154Y-73921D01*
X71323Y-73921D01*
X71435Y-73977D01*
X71492Y-74090D01*
X71492Y-74709D01*
X71492Y-74090D02*
X71548Y-73977D01*
X71660Y-73921D01*
X71829Y-73921D01*
X71942Y-73977D01*
X71998Y-74090D01*
X71998Y-74709D01*
X72560Y-74709D02*
X72560Y-73921D01*
X72560Y-74034D02*
X72616Y-73977D01*
X72729Y-73921D01*
X72898Y-73921D01*
X73010Y-73977D01*
X73066Y-74090D01*
X73066Y-74709D01*
X73066Y-74090D02*
X73123Y-73977D01*
X73235Y-73921D01*
X73404Y-73921D01*
X73516Y-73977D01*
X73573Y-74090D01*
X73573Y-74709D01*
X75879Y-73471D02*
X74866Y-74990D01*
X77397Y-73527D02*
X77510Y-73527D01*
X77622Y-73584D01*
X77678Y-73640D01*
X77735Y-73752D01*
X77791Y-73977D01*
X77791Y-74259D01*
X77735Y-74484D01*
X77678Y-74596D01*
X77622Y-74652D01*
X77510Y-74709D01*
X77397Y-74709D01*
X77285Y-74652D01*
X77228Y-74596D01*
X77172Y-74484D01*
X77116Y-74259D01*
X77116Y-73977D01*
X77172Y-73752D01*
X77228Y-73640D01*
X77285Y-73584D01*
X77397Y-73527D01*
X78297Y-74596D02*
X78353Y-74652D01*
X78297Y-74709D01*
X78241Y-74652D01*
X78297Y-74596D01*
X78297Y-74709D01*
X78747Y-73527D02*
X79478Y-73527D01*
X79084Y-73977D01*
X79253Y-73977D01*
X79366Y-74034D01*
X79422Y-74090D01*
X79478Y-74202D01*
X79478Y-74484D01*
X79422Y-74596D01*
X79366Y-74652D01*
X79253Y-74709D01*
X78916Y-74709D01*
X78803Y-74652D01*
X78747Y-74596D01*
X79872Y-73527D02*
X80603Y-73527D01*
X80209Y-73977D01*
X80378Y-73977D01*
X80491Y-74034D01*
X80547Y-74090D01*
X80603Y-74202D01*
X80603Y-74484D01*
X80547Y-74596D01*
X80491Y-74652D01*
X80378Y-74709D01*
X80041Y-74709D01*
X79928Y-74652D01*
X79872Y-74596D01*
X81672Y-73527D02*
X81109Y-73527D01*
X81053Y-74090D01*
X81109Y-74034D01*
X81222Y-73977D01*
X81503Y-73977D01*
X81615Y-74034D01*
X81672Y-74090D01*
X81728Y-74202D01*
X81728Y-74484D01*
X81672Y-74596D01*
X81615Y-74652D01*
X81503Y-74709D01*
X81222Y-74709D01*
X81109Y-74652D01*
X81053Y-74596D01*
X82178Y-73527D02*
X82178Y-73752D01*
X82628Y-73527D02*
X82628Y-73752D01*
X84371Y-75159D02*
X84315Y-75102D01*
X84203Y-74934D01*
X84146Y-74821D01*
X84090Y-74652D01*
X84034Y-74371D01*
X84034Y-74146D01*
X84090Y-73865D01*
X84146Y-73696D01*
X84203Y-73584D01*
X84315Y-73415D01*
X84371Y-73359D01*
X84765Y-73640D02*
X84821Y-73584D01*
X84934Y-73527D01*
X85215Y-73527D01*
X85327Y-73584D01*
X85384Y-73640D01*
X85440Y-73752D01*
X85440Y-73865D01*
X85384Y-74034D01*
X84709Y-74709D01*
X85440Y-74709D01*
X86846Y-74709D02*
X86846Y-73527D01*
X87352Y-74709D02*
X87352Y-74090D01*
X87296Y-73977D01*
X87183Y-73921D01*
X87015Y-73921D01*
X86902Y-73977D01*
X86846Y-74034D01*
X88083Y-74709D02*
X87971Y-74652D01*
X87915Y-74596D01*
X87858Y-74484D01*
X87858Y-74146D01*
X87915Y-74034D01*
X87971Y-73977D01*
X88083Y-73921D01*
X88252Y-73921D01*
X88365Y-73977D01*
X88421Y-74034D01*
X88477Y-74146D01*
X88477Y-74484D01*
X88421Y-74596D01*
X88365Y-74652D01*
X88252Y-74709D01*
X88083Y-74709D01*
X89152Y-74709D02*
X89039Y-74652D01*
X88983Y-74540D01*
X88983Y-73527D01*
X90052Y-74652D02*
X89939Y-74709D01*
X89714Y-74709D01*
X89602Y-74652D01*
X89546Y-74540D01*
X89546Y-74090D01*
X89602Y-73977D01*
X89714Y-73921D01*
X89939Y-73921D01*
X90052Y-73977D01*
X90108Y-74090D01*
X90108Y-74202D01*
X89546Y-74315D01*
X90558Y-74652D02*
X90670Y-74709D01*
X90895Y-74709D01*
X91008Y-74652D01*
X91064Y-74540D01*
X91064Y-74484D01*
X91008Y-74371D01*
X90895Y-74315D01*
X90727Y-74315D01*
X90614Y-74259D01*
X90558Y-74146D01*
X90558Y-74090D01*
X90614Y-73977D01*
X90727Y-73921D01*
X90895Y-73921D01*
X91008Y-73977D01*
X91458Y-75159D02*
X91514Y-75102D01*
X91627Y-74934D01*
X91683Y-74821D01*
X91739Y-74652D01*
X91795Y-74371D01*
X91795Y-74146D01*
X91739Y-73865D01*
X91683Y-73696D01*
X91627Y-73584D01*
X91514Y-73415D01*
X91458Y-73359D01*
M02*
