G04 (created by PCBNEW (2013-jul-07)-stable) date Sun 11 Dec 2016 08:13:46 PM CST*
%MOIN*%
G04 Gerber Fmt 3.4, Leading zero omitted, Abs format*
%FSLAX34Y34*%
G01*
G70*
G90*
G04 APERTURE LIST*
%ADD10C,0.00590551*%
%ADD11R,0.06X0.06*%
%ADD12C,0.06*%
%ADD13C,0.08*%
%ADD14O,0.104X0.06*%
%ADD15C,0.07*%
%ADD16O,0.06X0.104*%
%ADD17R,0.07X0.07*%
%ADD18C,0.15*%
%ADD19R,0.062X0.09*%
%ADD20O,0.062X0.09*%
%ADD21R,0.09X0.062*%
%ADD22O,0.09X0.062*%
%ADD23O,0.085X0.165*%
%ADD24R,0.08X0.08*%
%ADD25C,0.167*%
%ADD26R,0.0492126X0.15748*%
%ADD27C,0.334646*%
G04 APERTURE END LIST*
G54D10*
G54D11*
X98000Y-60000D03*
G54D12*
X99000Y-60000D03*
G54D11*
X80000Y-61750D03*
G54D12*
X80000Y-62750D03*
G54D11*
X86000Y-56500D03*
G54D12*
X86000Y-55500D03*
G54D13*
X69500Y-44000D03*
X69500Y-43015D03*
G54D12*
X94500Y-52250D03*
X94500Y-53250D03*
X93500Y-52250D03*
X93500Y-53250D03*
X98000Y-61500D03*
X99000Y-61500D03*
X92250Y-64000D03*
X93250Y-64000D03*
X90000Y-64000D03*
X89000Y-64000D03*
X86750Y-64000D03*
X85750Y-64000D03*
X83250Y-57750D03*
X83250Y-58750D03*
X87250Y-58750D03*
X87250Y-59750D03*
X94500Y-58250D03*
X93500Y-58250D03*
X89250Y-58250D03*
X90250Y-58250D03*
X88500Y-56500D03*
X87500Y-56500D03*
X75500Y-48750D03*
X76500Y-48750D03*
X67000Y-66250D03*
X67000Y-65250D03*
X70500Y-55000D03*
X69500Y-55000D03*
X72750Y-60250D03*
X72750Y-59250D03*
X70750Y-59250D03*
X70750Y-58250D03*
X68500Y-57500D03*
X67500Y-57500D03*
X68500Y-55000D03*
X67500Y-55000D03*
X68500Y-60000D03*
X67500Y-60000D03*
G54D14*
X83000Y-61750D03*
X83000Y-59750D03*
X83000Y-60750D03*
G54D12*
X83250Y-62750D03*
X83250Y-63750D03*
G54D15*
X80000Y-60750D03*
X80000Y-59750D03*
G54D16*
X68750Y-67500D03*
X69750Y-67500D03*
X70750Y-67500D03*
X71750Y-67500D03*
X72750Y-67500D03*
X72750Y-64500D03*
X71750Y-64500D03*
X70750Y-64500D03*
X69750Y-64500D03*
X68750Y-64500D03*
G54D13*
X82000Y-54500D03*
X75000Y-54500D03*
X83000Y-56500D03*
X76000Y-56500D03*
G54D17*
X94250Y-43500D03*
G54D15*
X95250Y-43500D03*
X96250Y-43500D03*
G54D12*
X67750Y-61000D03*
X66750Y-61000D03*
X67750Y-56000D03*
X66750Y-56000D03*
X67750Y-58500D03*
X66750Y-58500D03*
X69250Y-56000D03*
X70250Y-56000D03*
G54D18*
X69250Y-46400D03*
X67250Y-46400D03*
X69250Y-52600D03*
X67250Y-52600D03*
G54D19*
X93250Y-62750D03*
G54D20*
X94250Y-62750D03*
X95250Y-62750D03*
X96250Y-62750D03*
X96250Y-59750D03*
X95250Y-59750D03*
X94250Y-59750D03*
X93250Y-59750D03*
G54D19*
X88250Y-62750D03*
G54D20*
X89250Y-62750D03*
X90250Y-62750D03*
X91250Y-62750D03*
X91250Y-59750D03*
X90250Y-59750D03*
X89250Y-59750D03*
X88250Y-59750D03*
G54D21*
X96000Y-50500D03*
G54D22*
X96000Y-51500D03*
X96000Y-52500D03*
X96000Y-53500D03*
X96000Y-54500D03*
X96000Y-55500D03*
X96000Y-56500D03*
X96000Y-57500D03*
X99000Y-57500D03*
X99000Y-56500D03*
X99000Y-55500D03*
X99000Y-54500D03*
X99000Y-53500D03*
X99000Y-52500D03*
X99000Y-51500D03*
X99000Y-50500D03*
G54D19*
X97250Y-45250D03*
G54D20*
X96250Y-45250D03*
X95250Y-45250D03*
X94250Y-45250D03*
X93250Y-45250D03*
X92250Y-45250D03*
X91250Y-45250D03*
X91250Y-48250D03*
X92250Y-48250D03*
X93250Y-48250D03*
X94250Y-48250D03*
X95250Y-48250D03*
X96250Y-48250D03*
X97250Y-48250D03*
G54D23*
X87000Y-66500D03*
X89000Y-66500D03*
X91000Y-66500D03*
X93000Y-66500D03*
X95000Y-66500D03*
X97000Y-66500D03*
G54D24*
X90750Y-53500D03*
G54D13*
X90750Y-55500D03*
G54D24*
X72000Y-42750D03*
G54D13*
X74000Y-42750D03*
G54D12*
X89500Y-56750D03*
X91500Y-56750D03*
X92250Y-60750D03*
X92250Y-62750D03*
X87250Y-60750D03*
X87250Y-62750D03*
X75500Y-51750D03*
X75500Y-49750D03*
X84000Y-46500D03*
X84000Y-44500D03*
X81750Y-46500D03*
X81750Y-44500D03*
X88250Y-57500D03*
X86250Y-57500D03*
X94500Y-54250D03*
X94500Y-55250D03*
X92250Y-58250D03*
X91250Y-58250D03*
X93500Y-54250D03*
X93500Y-55250D03*
X92500Y-56750D03*
X93500Y-56750D03*
X72000Y-55000D03*
X71250Y-54500D03*
X72000Y-54000D03*
X68750Y-61000D03*
X69500Y-61500D03*
X68750Y-62000D03*
X70500Y-60750D03*
X71000Y-60000D03*
X71500Y-60750D03*
X76500Y-51000D03*
X77250Y-51500D03*
X76500Y-52000D03*
X71250Y-57000D03*
X71750Y-56250D03*
X72250Y-57000D03*
G54D23*
X75000Y-66500D03*
X77000Y-66500D03*
X79000Y-66500D03*
X81000Y-66500D03*
X83000Y-66500D03*
X85000Y-66500D03*
G54D25*
X67250Y-43375D03*
X98750Y-43375D03*
G54D26*
X78642Y-50964D03*
X79429Y-50964D03*
X80217Y-50964D03*
X81004Y-50964D03*
X81791Y-50964D03*
X82579Y-50964D03*
X83365Y-50964D03*
X84153Y-50964D03*
X84940Y-50964D03*
X85727Y-50964D03*
X86515Y-50964D03*
X87302Y-50964D03*
G54D27*
X77854Y-45472D03*
X88090Y-45472D03*
G54D25*
X67250Y-63000D03*
X98625Y-63000D03*
G54D19*
X85250Y-62750D03*
G54D20*
X86250Y-62750D03*
X86250Y-59750D03*
X85250Y-59750D03*
G54D12*
X69750Y-59500D03*
X69750Y-58500D03*
X69750Y-57500D03*
X87250Y-52500D03*
X87250Y-55500D03*
X88250Y-55500D03*
X88250Y-52500D03*
G54D11*
X95000Y-49750D03*
G54D12*
X95000Y-51250D03*
G54D11*
X93500Y-51250D03*
G54D12*
X93500Y-49750D03*
G54D17*
X98750Y-46000D03*
G54D15*
X98750Y-47000D03*
X98750Y-48000D03*
G54D17*
X91250Y-51750D03*
G54D15*
X91250Y-50750D03*
X91250Y-49750D03*
G54D12*
X71500Y-58250D03*
X72000Y-59000D03*
X72500Y-58250D03*
G54D15*
X85100Y-57250D03*
X85100Y-58250D03*
M02*
