M48
INCH,TZ
T10C0.028
T11C0.035
T12C0.042
T13C0.052
T14C0.060
T15C0.167
T16C0.335
%
T10
X071250Y-49000
X071750Y-49750
X072000Y-47250
X072250Y-50500
X072750Y-49000
X073500Y-65500
X074750Y-45500
X076750Y-55750
X076750Y-57500
X077250Y-54550
X077250Y-56000
X077850Y-53950
X078000Y-52500
X078250Y-56000
X080000Y-56250
X086500Y-52500
X088750Y-51000
X091250Y-43500
X091250Y-46250
X097500Y-44250
T11
X066750Y-56000
X066750Y-58500
X066750Y-61000
X067000Y-65250
X067000Y-66250
X067500Y-55000
X067500Y-57500
X067500Y-60000
X067750Y-56000
X067750Y-58500
X067750Y-61000
X068500Y-55000
X068500Y-57500
X068500Y-60000
X068750Y-61000
X068750Y-62000
X068750Y-64500
X068750Y-67500
X069250Y-56000
X069500Y-55000
X069500Y-61500
X069750Y-57500
X069750Y-58500
X069750Y-59500
X069750Y-64500
X069750Y-67500
X070250Y-56000
X070500Y-55000
X070500Y-60750
X070750Y-58250
X070750Y-59250
X070750Y-64500
X070750Y-67500
X071000Y-60000
X071250Y-54500
X071250Y-57000
X071500Y-58250
X071500Y-60750
X071750Y-56250
X071750Y-64500
X071750Y-67500
X072000Y-54000
X072000Y-55000
X072000Y-59000
X072250Y-57000
X072500Y-58250
X072750Y-59250
X072750Y-60250
X072750Y-64500
X072750Y-67500
X075500Y-48750
X075500Y-49750
X075500Y-51750
X076500Y-48750
X076500Y-51000
X076500Y-52000
X077250Y-51500
X080000Y-61750
X080000Y-62750
X081750Y-44500
X081750Y-46500
X083000Y-59750
X083000Y-60750
X083000Y-61750
X083250Y-57750
X083250Y-58750
X083250Y-62750
X083250Y-63750
X084000Y-44500
X084000Y-46500
X085250Y-59750
X085250Y-62750
X085750Y-64000
X086000Y-55500
X086000Y-56500
X086250Y-57500
X086250Y-59750
X086250Y-62750
X086750Y-64000
X087250Y-52500
X087250Y-55500
X087250Y-58750
X087250Y-59750
X087250Y-60750
X087250Y-62750
X087500Y-56500
X088250Y-52500
X088250Y-55500
X088250Y-57500
X088250Y-59750
X088250Y-62750
X088500Y-56500
X089000Y-64000
X089250Y-58250
X089250Y-59750
X089250Y-62750
X089500Y-56750
X090000Y-64000
X090250Y-58250
X090250Y-59750
X090250Y-62750
X091250Y-45250
X091250Y-48250
X091250Y-58250
X091250Y-59750
X091250Y-62750
X091500Y-56750
X092250Y-45250
X092250Y-48250
X092250Y-58250
X092250Y-60750
X092250Y-62750
X092250Y-64000
X092500Y-56750
X093250Y-45250
X093250Y-48250
X093250Y-59750
X093250Y-62750
X093250Y-64000
X093500Y-49750
X093500Y-51250
X093500Y-52250
X093500Y-53250
X093500Y-54250
X093500Y-55250
X093500Y-56750
X093500Y-58250
X094250Y-45250
X094250Y-48250
X094250Y-59750
X094250Y-62750
X094500Y-52250
X094500Y-53250
X094500Y-54250
X094500Y-55250
X094500Y-58250
X095000Y-49750
X095000Y-51250
X095250Y-45250
X095250Y-48250
X095250Y-59750
X095250Y-62750
X096000Y-50500
X096000Y-51500
X096000Y-52500
X096000Y-53500
X096000Y-54500
X096000Y-55500
X096000Y-56500
X096000Y-57500
X096250Y-45250
X096250Y-48250
X096250Y-59750
X096250Y-62750
X097250Y-45250
X097250Y-48250
X098000Y-60000
X098000Y-61500
X099000Y-50500
X099000Y-51500
X099000Y-52500
X099000Y-53500
X099000Y-54500
X099000Y-55500
X099000Y-56500
X099000Y-57500
X099000Y-60000
X099000Y-61500
T12
X069500Y-43016
X069500Y-44000
X072000Y-42750
X074000Y-42750
X080000Y-59750
X080000Y-60750
X085100Y-57250
X085100Y-58250
X090750Y-53500
X090750Y-55500
X091250Y-49750
X091250Y-50750
X091250Y-51750
X094250Y-43500
X095250Y-43500
X096250Y-43500
X098750Y-46000
X098750Y-47000
X098750Y-48000
T13
X075000Y-54500
X075000Y-66500
X076000Y-56500
X077000Y-66500
X079000Y-66500
X081000Y-66500
X082000Y-54500
X083000Y-56500
X083000Y-66500
X085000Y-66500
X087000Y-66500
X089000Y-66500
X091000Y-66500
X093000Y-66500
X095000Y-66500
X097000Y-66500
T14
X067250Y-46400
X067250Y-52600
X069250Y-46400
X069250Y-52600
T15
X067250Y-43375
X067250Y-63000
X098625Y-63000
X098750Y-43375
T16
X077854Y-45472
X088091Y-45472
M30

