G04 (created by PCBNEW (2013-jul-07)-stable) date Sun 11 Dec 2016 08:13:46 PM CST*
%MOIN*%
G04 Gerber Fmt 3.4, Leading zero omitted, Abs format*
%FSLAX34Y34*%
G01*
G70*
G90*
G04 APERTURE LIST*
%ADD10C,0.00590551*%
%ADD11R,0.06X0.06*%
%ADD12C,0.06*%
%ADD13C,0.08*%
%ADD14O,0.104X0.06*%
%ADD15C,0.07*%
%ADD16O,0.06X0.104*%
%ADD17R,0.07X0.07*%
%ADD18C,0.15*%
%ADD19R,0.062X0.09*%
%ADD20O,0.062X0.09*%
%ADD21R,0.09X0.062*%
%ADD22O,0.09X0.062*%
%ADD23O,0.085X0.165*%
%ADD24R,0.08X0.08*%
%ADD25R,0.0492126X0.15748*%
%ADD26C,0.042*%
%ADD27C,0.06*%
%ADD28C,0.08*%
%ADD29C,0.03*%
G04 APERTURE END LIST*
G54D10*
G54D11*
X98000Y-60000D03*
G54D12*
X99000Y-60000D03*
G54D11*
X80000Y-61750D03*
G54D12*
X80000Y-62750D03*
G54D11*
X86000Y-56500D03*
G54D12*
X86000Y-55500D03*
G54D13*
X69500Y-44000D03*
X69500Y-43015D03*
G54D12*
X94500Y-52250D03*
X94500Y-53250D03*
X93500Y-52250D03*
X93500Y-53250D03*
X98000Y-61500D03*
X99000Y-61500D03*
X92250Y-64000D03*
X93250Y-64000D03*
X90000Y-64000D03*
X89000Y-64000D03*
X86750Y-64000D03*
X85750Y-64000D03*
X83250Y-57750D03*
X83250Y-58750D03*
X87250Y-58750D03*
X87250Y-59750D03*
X94500Y-58250D03*
X93500Y-58250D03*
X89250Y-58250D03*
X90250Y-58250D03*
X88500Y-56500D03*
X87500Y-56500D03*
X75500Y-48750D03*
X76500Y-48750D03*
X67000Y-66250D03*
X67000Y-65250D03*
X70500Y-55000D03*
X69500Y-55000D03*
X72750Y-60250D03*
X72750Y-59250D03*
X70750Y-59250D03*
X70750Y-58250D03*
X68500Y-57500D03*
X67500Y-57500D03*
X68500Y-55000D03*
X67500Y-55000D03*
X68500Y-60000D03*
X67500Y-60000D03*
G54D14*
X83000Y-61750D03*
X83000Y-59750D03*
X83000Y-60750D03*
G54D12*
X83250Y-62750D03*
X83250Y-63750D03*
G54D15*
X80000Y-60750D03*
X80000Y-59750D03*
G54D16*
X68750Y-67500D03*
X69750Y-67500D03*
X70750Y-67500D03*
X71750Y-67500D03*
X72750Y-67500D03*
X72750Y-64500D03*
X71750Y-64500D03*
X70750Y-64500D03*
X69750Y-64500D03*
X68750Y-64500D03*
G54D13*
X82000Y-54500D03*
X75000Y-54500D03*
X83000Y-56500D03*
X76000Y-56500D03*
G54D17*
X94250Y-43500D03*
G54D15*
X95250Y-43500D03*
X96250Y-43500D03*
G54D12*
X67750Y-61000D03*
X66750Y-61000D03*
X67750Y-56000D03*
X66750Y-56000D03*
X67750Y-58500D03*
X66750Y-58500D03*
X69250Y-56000D03*
X70250Y-56000D03*
G54D18*
X69250Y-46400D03*
X67250Y-46400D03*
X69250Y-52600D03*
X67250Y-52600D03*
G54D19*
X93250Y-62750D03*
G54D20*
X94250Y-62750D03*
X95250Y-62750D03*
X96250Y-62750D03*
X96250Y-59750D03*
X95250Y-59750D03*
X94250Y-59750D03*
X93250Y-59750D03*
G54D19*
X88250Y-62750D03*
G54D20*
X89250Y-62750D03*
X90250Y-62750D03*
X91250Y-62750D03*
X91250Y-59750D03*
X90250Y-59750D03*
X89250Y-59750D03*
X88250Y-59750D03*
G54D21*
X96000Y-50500D03*
G54D22*
X96000Y-51500D03*
X96000Y-52500D03*
X96000Y-53500D03*
X96000Y-54500D03*
X96000Y-55500D03*
X96000Y-56500D03*
X96000Y-57500D03*
X99000Y-57500D03*
X99000Y-56500D03*
X99000Y-55500D03*
X99000Y-54500D03*
X99000Y-53500D03*
X99000Y-52500D03*
X99000Y-51500D03*
X99000Y-50500D03*
G54D19*
X97250Y-45250D03*
G54D20*
X96250Y-45250D03*
X95250Y-45250D03*
X94250Y-45250D03*
X93250Y-45250D03*
X92250Y-45250D03*
X91250Y-45250D03*
X91250Y-48250D03*
X92250Y-48250D03*
X93250Y-48250D03*
X94250Y-48250D03*
X95250Y-48250D03*
X96250Y-48250D03*
X97250Y-48250D03*
G54D23*
X87000Y-66500D03*
X89000Y-66500D03*
X91000Y-66500D03*
X93000Y-66500D03*
X95000Y-66500D03*
X97000Y-66500D03*
G54D24*
X90750Y-53500D03*
G54D13*
X90750Y-55500D03*
G54D24*
X72000Y-42750D03*
G54D13*
X74000Y-42750D03*
G54D12*
X89500Y-56750D03*
X91500Y-56750D03*
X92250Y-60750D03*
X92250Y-62750D03*
X87250Y-60750D03*
X87250Y-62750D03*
X75500Y-51750D03*
X75500Y-49750D03*
X84000Y-46500D03*
X84000Y-44500D03*
X81750Y-46500D03*
X81750Y-44500D03*
X88250Y-57500D03*
X86250Y-57500D03*
X94500Y-54250D03*
X94500Y-55250D03*
X92250Y-58250D03*
X91250Y-58250D03*
X93500Y-54250D03*
X93500Y-55250D03*
X92500Y-56750D03*
X93500Y-56750D03*
X72000Y-55000D03*
X71250Y-54500D03*
X72000Y-54000D03*
X68750Y-61000D03*
X69500Y-61500D03*
X68750Y-62000D03*
X70500Y-60750D03*
X71000Y-60000D03*
X71500Y-60750D03*
X76500Y-51000D03*
X77250Y-51500D03*
X76500Y-52000D03*
X71250Y-57000D03*
X71750Y-56250D03*
X72250Y-57000D03*
G54D23*
X75000Y-66500D03*
X77000Y-66500D03*
X79000Y-66500D03*
X81000Y-66500D03*
X83000Y-66500D03*
X85000Y-66500D03*
G54D25*
X78248Y-50964D03*
X79035Y-50964D03*
X79823Y-50964D03*
X80610Y-50964D03*
X81398Y-50964D03*
X82185Y-50964D03*
X82972Y-50964D03*
X83759Y-50964D03*
X84546Y-50964D03*
X85334Y-50964D03*
X86121Y-50964D03*
X86909Y-50964D03*
X87696Y-50964D03*
G54D19*
X85250Y-62750D03*
G54D20*
X86250Y-62750D03*
X86250Y-59750D03*
X85250Y-59750D03*
G54D12*
X69750Y-59500D03*
X69750Y-58500D03*
X69750Y-57500D03*
X87250Y-52500D03*
X87250Y-55500D03*
X88250Y-55500D03*
X88250Y-52500D03*
G54D11*
X95000Y-49750D03*
G54D12*
X95000Y-51250D03*
G54D11*
X93500Y-51250D03*
G54D12*
X93500Y-49750D03*
G54D17*
X98750Y-46000D03*
G54D15*
X98750Y-47000D03*
X98750Y-48000D03*
G54D17*
X91250Y-51750D03*
G54D15*
X91250Y-50750D03*
X91250Y-49750D03*
G54D12*
X71500Y-58250D03*
X72000Y-59000D03*
X72500Y-58250D03*
G54D15*
X85100Y-57250D03*
X85100Y-58250D03*
G54D26*
X73500Y-65500D03*
X91250Y-43500D03*
X77250Y-56000D03*
X78000Y-52500D03*
X77250Y-54550D03*
X72250Y-50500D03*
X86500Y-52500D03*
X76750Y-57500D03*
X80000Y-56250D03*
X76750Y-55750D03*
X71250Y-49000D03*
X74750Y-45500D03*
X78250Y-56000D03*
X77850Y-53950D03*
X91250Y-46250D03*
X72750Y-49000D03*
X72000Y-47250D03*
X97500Y-44250D03*
X71750Y-49750D03*
X88750Y-51000D03*
G54D27*
X83759Y-50964D02*
X83759Y-55740D01*
X83759Y-55740D02*
X83000Y-56500D01*
X82185Y-50964D02*
X82185Y-54314D01*
X82185Y-54314D02*
X82000Y-54500D01*
G54D28*
X69250Y-52600D02*
X72750Y-52600D01*
X75000Y-58500D02*
X75000Y-66500D01*
X72750Y-52600D02*
X75000Y-58500D01*
X67250Y-52600D02*
X69250Y-52600D01*
G54D29*
X85000Y-57750D02*
X85000Y-57350D01*
X85000Y-57350D02*
X85100Y-57250D01*
X85000Y-57750D02*
X85000Y-58150D01*
X85000Y-58150D02*
X85100Y-58250D01*
X73500Y-65500D02*
X73500Y-61500D01*
X83250Y-57750D02*
X85000Y-57750D01*
X85000Y-57750D02*
X86000Y-57750D01*
X86000Y-57750D02*
X86250Y-57500D01*
X76500Y-52000D02*
X76500Y-52000D01*
X74500Y-51500D02*
X73500Y-51500D01*
X75000Y-51000D02*
X74500Y-51500D01*
X75750Y-51000D02*
X75000Y-51000D01*
X76500Y-52000D02*
X75750Y-51000D01*
X91250Y-45250D02*
X91250Y-43500D01*
X72250Y-57000D02*
X72750Y-56500D01*
X72750Y-55000D02*
X72000Y-54000D01*
X72750Y-56500D02*
X72750Y-55000D01*
X72500Y-58250D02*
X72250Y-57000D01*
X71500Y-60750D02*
X72000Y-61500D01*
X72000Y-61500D02*
X73500Y-61500D01*
X73250Y-58250D02*
X72500Y-58250D01*
X73500Y-61500D02*
X73500Y-58500D01*
X73500Y-58500D02*
X73250Y-58250D01*
X68750Y-62000D02*
X69000Y-62000D01*
X70250Y-62250D02*
X71500Y-60750D01*
X69250Y-62250D02*
X70250Y-62250D01*
X69000Y-62000D02*
X69250Y-62250D01*
X66750Y-61000D02*
X67500Y-61750D01*
X68500Y-62000D02*
X68750Y-62000D01*
X68250Y-61750D02*
X68500Y-62000D01*
X67500Y-61750D02*
X68250Y-61750D01*
X93500Y-56750D02*
X93500Y-55250D01*
G54D27*
X69500Y-43015D02*
X69515Y-43000D01*
X70000Y-43000D02*
X72375Y-45375D01*
X69515Y-43000D02*
X70000Y-43000D01*
G54D28*
X75000Y-54500D02*
X75000Y-53000D01*
X75000Y-53000D02*
X73500Y-51500D01*
X74000Y-43750D02*
X74000Y-42750D01*
X70250Y-47500D02*
X72375Y-45375D01*
X73500Y-51500D02*
X71500Y-51500D01*
X71500Y-51500D02*
X70250Y-50250D01*
X70250Y-50250D02*
X70250Y-48250D01*
X70250Y-48250D02*
X70250Y-47500D01*
X72375Y-45375D02*
X74000Y-43750D01*
G54D29*
X80000Y-62750D02*
X79500Y-62750D01*
X78116Y-61366D02*
X78116Y-61366D01*
X79500Y-62750D02*
X78116Y-61366D01*
G54D28*
X76000Y-56500D02*
X75000Y-54500D01*
X77000Y-63750D02*
X76000Y-58000D01*
X76000Y-58000D02*
X76000Y-56500D01*
G54D29*
X93500Y-55250D02*
X90750Y-55500D01*
X90750Y-55500D02*
X91500Y-56750D01*
X86250Y-57500D02*
X86750Y-57250D01*
X86750Y-57250D02*
X86750Y-56000D01*
X86750Y-56000D02*
X87250Y-55500D01*
X99000Y-60000D02*
X99000Y-60500D01*
X96250Y-60250D02*
X96250Y-59750D01*
X96750Y-60750D02*
X96250Y-60250D01*
X98750Y-60750D02*
X96750Y-60750D01*
X99000Y-60500D02*
X98750Y-60750D01*
X96000Y-55500D02*
X94500Y-55250D01*
X94500Y-55250D02*
X93500Y-55250D01*
G54D27*
X84546Y-50964D02*
X84546Y-56453D01*
X82750Y-58000D02*
X79950Y-58000D01*
X84546Y-56453D02*
X83250Y-57750D01*
X83250Y-57750D02*
X82750Y-58000D01*
X82972Y-50964D02*
X82972Y-55027D01*
G54D28*
X77000Y-63750D02*
X77000Y-66500D01*
G54D27*
X82972Y-55027D02*
X79950Y-58000D01*
G54D28*
X79950Y-58000D02*
X78374Y-60874D01*
X78374Y-60874D02*
X78116Y-61366D01*
X78116Y-61366D02*
X77000Y-63750D01*
G54D29*
X97000Y-66500D02*
X97000Y-65750D01*
X90250Y-63250D02*
X90250Y-62750D01*
X91750Y-64750D02*
X90250Y-63250D01*
X96500Y-64750D02*
X91750Y-64750D01*
X97000Y-65750D02*
X96500Y-64750D01*
X80610Y-50964D02*
X80610Y-52639D01*
X80610Y-52639D02*
X77250Y-56000D01*
X77250Y-54550D02*
X77250Y-53250D01*
X77250Y-53250D02*
X78000Y-52500D01*
X76000Y-50500D02*
X72250Y-50500D01*
X76500Y-51000D02*
X76000Y-50500D01*
X68750Y-61000D02*
X69250Y-60500D01*
X69250Y-60500D02*
X69250Y-60000D01*
X66750Y-59000D02*
X67000Y-59250D01*
X67000Y-59250D02*
X68899Y-59255D01*
X68899Y-59255D02*
X69250Y-60000D01*
X66750Y-59000D02*
X66750Y-58500D01*
X72000Y-55000D02*
X71900Y-55000D01*
X71900Y-55000D02*
X70400Y-56750D01*
X66750Y-56000D02*
X67500Y-56750D01*
X67500Y-56750D02*
X70400Y-56750D01*
X91500Y-52500D02*
X90750Y-52500D01*
X91500Y-54250D02*
X91500Y-52500D01*
X87000Y-54250D02*
X91500Y-54250D01*
X86500Y-52500D02*
X87000Y-54250D01*
X90500Y-50750D02*
X91250Y-50750D01*
X90250Y-51000D02*
X90500Y-50750D01*
X90250Y-52000D02*
X90250Y-51000D01*
X90750Y-52500D02*
X90250Y-52000D01*
X92250Y-45250D02*
X92250Y-45750D01*
X98250Y-46000D02*
X98750Y-46000D01*
X98000Y-46250D02*
X98250Y-46000D01*
X92750Y-46250D02*
X98000Y-46250D01*
X92250Y-45750D02*
X92750Y-46250D01*
X98750Y-48000D02*
X98250Y-48000D01*
X93250Y-47750D02*
X93250Y-48250D01*
X93749Y-47250D02*
X93250Y-47750D01*
X97500Y-47264D02*
X93749Y-47250D01*
X98250Y-48000D02*
X97500Y-47264D01*
X95500Y-58250D02*
X94750Y-57500D01*
X87250Y-58750D02*
X87750Y-58250D01*
X89000Y-57500D02*
X94750Y-57500D01*
X89000Y-57500D02*
X88500Y-58250D01*
X88500Y-58250D02*
X87750Y-58250D01*
X95500Y-58250D02*
X97000Y-58250D01*
X97000Y-58250D02*
X97250Y-58000D01*
X97250Y-58000D02*
X97250Y-51750D01*
X97250Y-51750D02*
X99500Y-48500D01*
X99500Y-48500D02*
X99500Y-45250D01*
X99500Y-45250D02*
X97250Y-45250D01*
X87250Y-58750D02*
X85500Y-58750D01*
X85500Y-58750D02*
X85250Y-59000D01*
X85250Y-59000D02*
X85250Y-59750D01*
X78750Y-57500D02*
X76750Y-57500D01*
X80000Y-56250D02*
X78750Y-57500D01*
X80000Y-60750D02*
X80000Y-59750D01*
X80000Y-61750D02*
X80000Y-60750D01*
X83000Y-60750D02*
X80000Y-60750D01*
X79823Y-50964D02*
X79823Y-52823D01*
X79823Y-52823D02*
X76750Y-55750D01*
X76750Y-55750D02*
X75500Y-51750D01*
X71250Y-49000D02*
X74750Y-45500D01*
X81398Y-52851D02*
X81398Y-50964D01*
X78250Y-56000D02*
X81398Y-52851D01*
X94500Y-53250D02*
X94500Y-54250D01*
X95000Y-51250D02*
X95750Y-50500D01*
X95750Y-50500D02*
X96000Y-50500D01*
X94500Y-53250D02*
X94750Y-53250D01*
X95000Y-51750D02*
X95000Y-51250D01*
X95250Y-52000D02*
X95000Y-51750D01*
X95250Y-53000D02*
X95250Y-52000D01*
X94750Y-53250D02*
X95250Y-53000D01*
X93500Y-54250D02*
X93500Y-53250D01*
X92750Y-51250D02*
X93500Y-51250D01*
X96000Y-51500D02*
X96250Y-51500D01*
X92750Y-52750D02*
X93500Y-53250D01*
X92750Y-49500D02*
X92750Y-51250D01*
X92750Y-51250D02*
X92750Y-52750D01*
X93250Y-49000D02*
X92750Y-49500D01*
X96750Y-49000D02*
X93250Y-49000D01*
X97250Y-49500D02*
X96750Y-49000D01*
X97250Y-50500D02*
X97250Y-49500D01*
X96250Y-51500D02*
X97250Y-50500D01*
X93500Y-52250D02*
X94250Y-51500D01*
X93750Y-49750D02*
X93500Y-49750D01*
X94250Y-50250D02*
X93750Y-49750D01*
X94250Y-51500D02*
X94250Y-50250D01*
X93500Y-52250D02*
X94500Y-52250D01*
X95000Y-49750D02*
X93500Y-49750D01*
X87696Y-50964D02*
X87696Y-51696D01*
X87696Y-51696D02*
X88250Y-52500D01*
X98000Y-59250D02*
X98000Y-51750D01*
X98000Y-60000D02*
X98000Y-59250D01*
X98250Y-51500D02*
X99000Y-51500D01*
X98000Y-51750D02*
X98250Y-51500D01*
X79035Y-52764D02*
X79035Y-50964D01*
X77850Y-53950D02*
X79035Y-52764D01*
X92250Y-58250D02*
X93500Y-58250D01*
X95250Y-59750D02*
X95250Y-59250D01*
X95250Y-59250D02*
X95000Y-59000D01*
X95000Y-59000D02*
X94250Y-59000D01*
X94250Y-59000D02*
X93500Y-58250D01*
X95000Y-66500D02*
X94500Y-65250D01*
X91250Y-65250D02*
X90000Y-64000D01*
X94500Y-65250D02*
X91250Y-65250D01*
X77250Y-50500D02*
X77250Y-51500D01*
X76500Y-50000D02*
X77250Y-50500D01*
X76500Y-48750D02*
X76500Y-50000D01*
X77250Y-51500D02*
X78035Y-50964D01*
X78035Y-50964D02*
X78248Y-50964D01*
X72750Y-49000D02*
X75500Y-46000D01*
X75500Y-46000D02*
X75500Y-44500D01*
X75500Y-44500D02*
X76500Y-43500D01*
X76500Y-43500D02*
X89500Y-43500D01*
X89500Y-43500D02*
X90250Y-44250D01*
X90250Y-44250D02*
X90250Y-45250D01*
X90250Y-45250D02*
X91250Y-46250D01*
X93500Y-44250D02*
X97500Y-44250D01*
X92000Y-42750D02*
X93500Y-44250D01*
X76500Y-42750D02*
X92000Y-42750D01*
X72000Y-47250D02*
X76500Y-42750D01*
X98750Y-47000D02*
X98250Y-47000D01*
X98000Y-46750D02*
X91500Y-46750D01*
X98250Y-47000D02*
X98000Y-46750D01*
X92000Y-49000D02*
X91000Y-49000D01*
X92250Y-49250D02*
X92000Y-49000D01*
X90500Y-47750D02*
X91500Y-46750D01*
X90500Y-48500D02*
X90500Y-47750D01*
X91000Y-49000D02*
X90500Y-48500D01*
X86500Y-54750D02*
X91750Y-54750D01*
X86000Y-54250D02*
X86500Y-54750D01*
X92250Y-54250D02*
X92250Y-49250D01*
X91750Y-54750D02*
X92250Y-54250D01*
X92250Y-49250D02*
X92250Y-49250D01*
X92250Y-49250D02*
X92250Y-49250D01*
X92250Y-49250D02*
X92250Y-49250D01*
X86000Y-52250D02*
X86000Y-54250D01*
X86121Y-50964D02*
X86121Y-51878D01*
X86121Y-51878D02*
X86000Y-52250D01*
X69750Y-57500D02*
X70750Y-57500D01*
X70750Y-57500D02*
X71250Y-57000D01*
X70500Y-60750D02*
X69750Y-59500D01*
X91250Y-49750D02*
X90500Y-49750D01*
X71750Y-49750D02*
X74250Y-49750D01*
X74250Y-49750D02*
X74500Y-49500D01*
X74500Y-49500D02*
X74500Y-48000D01*
X74500Y-48000D02*
X75000Y-47500D01*
X75000Y-47500D02*
X89500Y-47500D01*
X90000Y-48000D02*
X89500Y-47500D01*
X90000Y-49250D02*
X90000Y-48000D01*
X90500Y-49750D02*
X90000Y-49250D01*
X86909Y-50964D02*
X86909Y-51909D01*
X86909Y-51909D02*
X87250Y-52500D01*
X85334Y-50964D02*
X85250Y-56000D01*
X85250Y-56000D02*
X86000Y-56500D01*
X72750Y-67500D02*
X71750Y-67500D01*
X71750Y-67500D02*
X70750Y-67500D01*
X73500Y-67750D02*
X73250Y-67500D01*
X73250Y-67500D02*
X72750Y-67500D01*
X97250Y-62000D02*
X97000Y-61750D01*
X97250Y-62000D02*
X97250Y-64000D01*
X97250Y-64000D02*
X99000Y-65750D01*
X99000Y-65750D02*
X99000Y-67500D01*
X99000Y-67500D02*
X98750Y-67750D01*
X98750Y-67750D02*
X73500Y-67750D01*
X89250Y-59000D02*
X91750Y-59000D01*
X92250Y-59500D02*
X92250Y-60750D01*
X91750Y-59000D02*
X92250Y-59500D01*
X98000Y-61500D02*
X97750Y-61750D01*
X97750Y-61750D02*
X97000Y-61750D01*
X67000Y-66250D02*
X69500Y-66250D01*
X69750Y-66500D02*
X69750Y-67500D01*
X69500Y-66250D02*
X69750Y-66500D01*
X87250Y-60750D02*
X87250Y-59750D01*
X92250Y-60750D02*
X93250Y-60750D01*
X89250Y-59000D02*
X89250Y-58250D01*
X88500Y-59000D02*
X89250Y-59000D01*
X88500Y-59000D02*
X88250Y-59250D01*
X88250Y-59750D02*
X88250Y-59250D01*
X87250Y-59750D02*
X88250Y-59750D01*
X75500Y-48750D02*
X75500Y-48250D01*
X89500Y-50250D02*
X88750Y-51000D01*
X89500Y-48500D02*
X89500Y-50250D01*
X89000Y-48000D02*
X89500Y-48500D01*
X75750Y-48000D02*
X89000Y-48000D01*
X75500Y-48250D02*
X75750Y-48000D01*
X88250Y-59750D02*
X88250Y-61500D01*
X84000Y-63750D02*
X83250Y-63750D01*
X84250Y-63500D02*
X84000Y-63750D01*
X84250Y-62000D02*
X84250Y-63500D01*
X84400Y-61700D02*
X84250Y-62000D01*
X88000Y-61750D02*
X84400Y-61700D01*
X88250Y-61500D02*
X88000Y-61750D01*
X90750Y-53500D02*
X89500Y-52750D01*
X89500Y-52750D02*
X88750Y-51000D01*
X93250Y-59750D02*
X93250Y-60750D01*
X93250Y-60750D02*
X93250Y-61500D01*
X93500Y-61750D02*
X97000Y-61750D01*
X93250Y-61500D02*
X93500Y-61750D01*
X70750Y-67500D02*
X69750Y-67500D01*
X93250Y-59750D02*
X93250Y-59750D01*
M02*
