M48
;DRILL file {Pcbnew (2013-jul-07)-stable} date Sun 11 Dec 2016 08:13:38 PM CST
;FORMAT={2:4/ absolute / inch / suppress leading zeros}
FMAT,2
INCH,TZ
T1C0.028
T2C0.035
T3C0.042
T4C0.052
T5C0.060
%
G90
G05
M72
T1
X71250Y-49000
X71750Y-49750
X72000Y-47250
X72250Y-50500
X72750Y-49000
X73500Y-65500
X74750Y-45500
X76750Y-55750
X76750Y-57500
X77250Y-54550
X77250Y-56000
X77850Y-53950
X78000Y-52500
X78250Y-56000
X80000Y-56250
X86500Y-52500
X88750Y-51000
X91250Y-43500
X91250Y-46250
X97500Y-44250
T2
X66750Y-56000
X66750Y-58500
X66750Y-61000
X67000Y-65250
X67000Y-66250
X67500Y-55000
X67500Y-57500
X67500Y-60000
X67750Y-56000
X67750Y-58500
X67750Y-61000
X68500Y-55000
X68500Y-57500
X68500Y-60000
X68750Y-61000
X68750Y-62000
X68750Y-64500
X68750Y-67500
X69250Y-56000
X69500Y-55000
X69500Y-61500
X69750Y-57500
X69750Y-58500
X69750Y-59500
X69750Y-64500
X69750Y-67500
X70250Y-56000
X70500Y-55000
X70500Y-60750
X70750Y-58250
X70750Y-59250
X70750Y-64500
X70750Y-67500
X71000Y-60000
X71250Y-54500
X71250Y-57000
X71500Y-58250
X71500Y-60750
X71750Y-56250
X71750Y-64500
X71750Y-67500
X72000Y-54000
X72000Y-55000
X72000Y-59000
X72250Y-57000
X72500Y-58250
X72750Y-59250
X72750Y-60250
X72750Y-64500
X72750Y-67500
X75500Y-48750
X75500Y-49750
X75500Y-51750
X76500Y-48750
X76500Y-51000
X76500Y-52000
X77250Y-51500
X80000Y-61750
X80000Y-62750
X81750Y-44500
X81750Y-46500
X83000Y-59750
X83000Y-60750
X83000Y-61750
X83250Y-57750
X83250Y-58750
X83250Y-62750
X83250Y-63750
X84000Y-44500
X84000Y-46500
X85250Y-59750
X85250Y-62750
X85750Y-64000
X86000Y-55500
X86000Y-56500
X86250Y-57500
X86250Y-59750
X86250Y-62750
X86750Y-64000
X87250Y-52500
X87250Y-55500
X87250Y-58750
X87250Y-59750
X87250Y-60750
X87250Y-62750
X87500Y-56500
X88250Y-52500
X88250Y-55500
X88250Y-57500
X88250Y-59750
X88250Y-62750
X88500Y-56500
X89000Y-64000
X89250Y-58250
X89250Y-59750
X89250Y-62750
X89500Y-56750
X90000Y-64000
X90250Y-58250
X90250Y-59750
X90250Y-62750
X91250Y-45250
X91250Y-48250
X91250Y-58250
X91250Y-59750
X91250Y-62750
X91500Y-56750
X92250Y-45250
X92250Y-48250
X92250Y-58250
X92250Y-60750
X92250Y-62750
X92250Y-64000
X92500Y-56750
X93250Y-45250
X93250Y-48250
X93250Y-59750
X93250Y-62750
X93250Y-64000
X93500Y-49750
X93500Y-51250
X93500Y-52250
X93500Y-53250
X93500Y-54250
X93500Y-55250
X93500Y-56750
X93500Y-58250
X94250Y-45250
X94250Y-48250
X94250Y-59750
X94250Y-62750
X94500Y-52250
X94500Y-53250
X94500Y-54250
X94500Y-55250
X94500Y-58250
X95000Y-49750
X95000Y-51250
X95250Y-45250
X95250Y-48250
X95250Y-59750
X95250Y-62750
X96000Y-50500
X96000Y-51500
X96000Y-52500
X96000Y-53500
X96000Y-54500
X96000Y-55500
X96000Y-56500
X96000Y-57500
X96250Y-45250
X96250Y-48250
X96250Y-59750
X96250Y-62750
X97250Y-45250
X97250Y-48250
X98000Y-60000
X98000Y-61500
X99000Y-50500
X99000Y-51500
X99000Y-52500
X99000Y-53500
X99000Y-54500
X99000Y-55500
X99000Y-56500
X99000Y-57500
X99000Y-60000
X99000Y-61500
T3
X69500Y-43016
X69500Y-44000
X72000Y-42750
X74000Y-42750
X80000Y-59750
X80000Y-60750
X85100Y-57250
X85100Y-58250
X90750Y-53500
X90750Y-55500
X91250Y-49750
X91250Y-50750
X91250Y-51750
X94250Y-43500
X95250Y-43500
X96250Y-43500
X98750Y-46000
X98750Y-47000
X98750Y-48000
T4
X75000Y-54500
X75000Y-66500
X76000Y-56500
X77000Y-66500
X79000Y-66500
X81000Y-66500
X82000Y-54500
X83000Y-56500
X83000Y-66500
X85000Y-66500
X87000Y-66500
X89000Y-66500
X91000Y-66500
X93000Y-66500
X95000Y-66500
X97000Y-66500
T5
X67250Y-46400
X67250Y-52600
X69250Y-46400
X69250Y-52600
T0
M30
